<?xml version="1.0" encoding="UTF-8"?><svg id="Layer_2" xmlns="http://www.w3.org/2000/svg" viewBox="0 0 675.5 730.1"><defs><style>.cls-1{fill:#dce1e5;fill-rule:evenodd;}</style></defs><g id="Layer_1-2"><path class="cls-1" d="m56.09,131.2L245.96,27.5c61.45-33.55,111.12-39.58,183.25-.2l190.21,103.9c21.47,11.72,56.09,34.95,56.09,79.8v67.46c0,5.1-3.69,6.72-9.75,3.54-85.48-44.44-146.71-78.31-193.54-103.54v127.42l149.2,81.25c21.53,11.73,54.07,34.93,54.07,79.8v67.46c0,5.12-3.75,6.77-9.79,3.54l-232.24-124.32c-72.63-38.88-65.74-113.36-65.74-115.09V127.49c-21.4-6.86-38.31-6.79-59.82.19v170.84c0,1.73,6.84,76.09-65.74,115.09L9.8,538.49c-6.02,3.23-9.79,1.57-9.79-3.54v-67.46c0-44.87,32.66-68.62,54.2-80.35l149.2-81.25v-127.47c-46.88,25.17-108.1,59.13-193.66,103.58-6.07,3.17-9.76,1.57-9.76-3.54v-67.46c0-44.88,34.61-68.06,56.09-79.8h0Zm0,446.48l189.87-103.71c61.44-33.55,111.12-39.59,183.25-.19l190.21,103.9c21.46,11.71,56.09,34.95,56.09,79.79v67.47c0,5.09-3.68,6.7-9.76,3.54-387.87-201.73-268.07-201.55-655.97,0-6.09,3.16-9.76,1.58-9.76-3.54v-67.47c0-44.87,34.61-68.06,56.09-79.79h0Z"/></g></svg>